  <svg
                            width="54"
                            height="54"
                            viewBox="0 0 54 54"
                            fill="none"
                            xmlns="http://www.w3.org/2000/svg"
                        >
                            <path
                                opacity="0.2"
                                d="M47.25 27C47.25 31.0051 46.0624 34.9202 43.8373 38.2503C41.6122 41.5804 38.4496 44.1759 34.7494 45.7086C31.0491 47.2412 26.9775 47.6423 23.0494 46.8609C19.1213 46.0795 15.5131 44.1509 12.6811 41.3189C9.84908 38.4869 7.92046 34.8787 7.13911 30.9506C6.35776 27.0225 6.75877 22.9509 8.29145 19.2507C9.82412 15.5505 12.4196 12.3878 15.7497 10.1627C19.0798 7.93764 22.9949 6.75 27 6.75C32.3706 6.75 37.5213 8.88348 41.3189 12.6811C45.1165 16.4787 47.25 21.6294 47.25 27Z"
                                fill="#2E4E99"
                            />
                            <path
                                d="M27 5.0625C22.6612 5.0625 18.4198 6.34911 14.8122 8.75964C11.2046 11.1702 8.3928 14.5963 6.7324 18.6049C5.07201 22.6134 4.63757 27.0243 5.48403 31.2798C6.3305 35.5353 8.41984 39.4441 11.4879 42.5122C14.5559 45.5802 18.4648 47.6695 22.7202 48.516C26.9757 49.3624 31.3866 48.928 35.3951 47.2676C39.4037 45.6072 42.8299 42.7954 45.2404 39.1878C47.6509 35.5802 48.9375 31.3388 48.9375 27C48.9308 21.1839 46.6174 15.6079 42.5048 11.4952C38.3921 7.38262 32.8161 5.0692 27 5.0625ZM45.5625 27C45.564 28.7119 45.3276 30.4157 44.8601 32.0625H36.7369C37.2545 28.7073 37.2545 25.2927 36.7369 21.9375H44.8601C45.3276 23.5843 45.564 25.2881 45.5625 27ZM21.5156 35.4375H32.4844C31.4038 38.9783 29.5279 42.2251 27 44.9297C24.4733 42.2242 22.5975 38.9777 21.5156 35.4375ZM20.693 32.0625C20.1135 28.7124 20.1135 25.2876 20.693 21.9375H33.3239C33.9034 25.2876 33.9034 28.7124 33.3239 32.0625H20.693ZM8.43751 27C8.43601 25.2881 8.67242 23.5843 9.13993 21.9375H17.2631C16.7455 25.2927 16.7455 28.7073 17.2631 32.0625H9.13993C8.67242 30.4157 8.43601 28.7119 8.43751 27ZM32.4844 18.5625H21.5156C22.5962 15.0217 24.4721 11.7749 27 9.07031C29.5267 11.7758 31.4025 15.0223 32.4844 18.5625ZM43.5227 18.5625H36.0092C35.0621 15.0882 33.466 11.8245 31.3052 8.94375C33.916 9.57093 36.3603 10.7552 38.4706 12.4155C40.5809 14.0757 42.3072 16.1726 43.5312 18.5625H43.5227ZM22.6948 8.94375C20.534 11.8245 18.938 15.0882 17.9909 18.5625H10.4688C11.6928 16.1726 13.4192 14.0757 15.5294 12.4155C17.6397 10.7552 20.084 9.57093 22.6948 8.94375ZM10.4688 35.4375H17.9909C18.938 38.9118 20.534 42.1755 22.6948 45.0563C20.084 44.4291 17.6397 43.2448 15.5294 41.5845C13.4192 39.9243 11.6928 37.8274 10.4688 35.4375ZM31.3052 45.0563C33.466 42.1755 35.0621 38.9118 36.0092 35.4375H43.5312C42.3072 37.8274 40.5809 39.9243 38.4706 41.5845C36.3603 43.2448 33.916 44.4291 31.3052 45.0563Z"
                                fill="#2E4E99"
                            />
                        </svg>