  <svg
                                width="42"
                                height="42"
                                viewBox="0 0 54 54"
                                fill="none"
                                xmlns="http://www.w3.org/2000/svg"
                            >
                                <path
                                    fill-rule="evenodd"
                                    clip-rule="evenodd"
                                    d="M35.1817 39.5958C34.8857 42.0392 33.4051 43.996 31.1118 44.9759C29.8347 45.5218 28.1199 45.8165 26.7626 45.7239C24.6452 45.643 22.6559 45.128 20.8223 44.1867C20.1672 43.8502 19.1907 43.1784 18.4408 42.5491C18.2509 42.3902 18.2284 42.2882 18.354 42.11C18.4219 42.0077 18.547 41.8231 18.8235 41.4179C19.2246 40.8303 19.2747 40.7566 19.3198 40.6877C19.4481 40.4907 19.6566 40.4736 19.8622 40.6354C19.8838 40.6522 19.8838 40.6522 19.9001 40.665C19.9339 40.6911 19.9339 40.6911 20.0135 40.753C20.094 40.8158 20.1418 40.8528 20.1611 40.8673C22.1387 42.4161 24.4418 43.3093 26.7669 43.3987C30.0019 43.3546 32.3281 41.9 32.745 39.6666C33.2033 37.2086 31.2737 35.0853 27.4986 33.9017C26.3179 33.5317 23.3335 32.3371 22.7833 32.0143C20.1992 30.4982 18.9911 28.5123 19.1628 26.0594C19.4259 22.6592 22.5824 20.1233 26.5708 20.1063C28.3544 20.1027 30.1342 20.4733 31.8441 21.1938C32.4495 21.449 33.5304 22.0372 33.9036 22.3159C34.1186 22.4737 34.161 22.6577 34.0378 22.8562C33.969 22.9713 33.8553 23.1537 33.6155 23.5341L33.6129 23.5383C33.2973 24.0393 33.2874 24.055 33.215 24.1721C33.0899 24.3626 32.9428 24.3804 32.7173 24.2372C30.8876 23.0081 28.8593 22.3897 26.6286 22.3451C23.8514 22.4 21.7698 24.0529 21.6329 26.3044C21.5966 28.338 23.1218 29.8227 26.4165 30.9547C33.1041 33.1037 35.6634 35.6233 35.1817 39.5958ZM26.9226 4.48951C31.2766 4.48951 34.8256 8.6214 34.9916 13.7937H18.8537C19.0197 8.6214 22.5687 4.48951 26.9226 4.48951ZM49.4559 14.7661C49.4559 14.229 49.0233 13.7937 48.49 13.7937H38.0298C37.7732 6.96437 32.8985 1.5188 26.9226 1.5188C20.9468 1.5188 16.0721 6.96437 15.8155 13.7937L5.34034 13.7939C4.81512 13.8034 4.39225 14.2351 4.39225 14.7661C4.39225 14.7915 4.3932 14.8167 4.39509 14.8415H4.3877L5.88092 47.7579C5.88111 47.8495 5.88452 47.9418 5.89135 48.0348C5.89287 48.0558 5.89457 48.0766 5.89628 48.0974L5.8995 48.1669L5.9031 48.1705C6.12998 50.461 7.79228 52.3058 10.0526 52.391L10.0577 52.3959H43.2857C43.3014 52.3961 43.3171 52.3963 43.3329 52.3963C43.3486 52.3963 43.3643 52.3961 43.3801 52.3959H43.4508L43.4523 52.3946C45.752 52.3318 47.6148 50.4612 47.8116 48.1425L47.8127 48.1413L47.8142 48.1102C47.8161 48.0858 47.8179 48.0615 47.8194 48.0371C47.823 47.9787 47.8254 47.9205 47.8264 47.8627L49.4557 14.8163H49.4546C49.4556 14.7997 49.4559 14.7829 49.4559 14.7661Z"
                                    fill="#EE4D2D"
                                />
                            </svg>