  <svg
                                width="42"
                                height="42"
                                viewBox="0 0 54 54"
                                fill="none"
                                xmlns="http://www.w3.org/2000/svg"
                            >
                                <path
                                    fill-rule="evenodd"
                                    clip-rule="evenodd"
                                    d="M38.1712 9.96808C37.5891 4.35546 32.8371 -0.0101074 27.0759 1.75762e-05C21.3182 0.0118301 16.5847 4.35714 15.9418 9.93939L15.8203 11.2303L19.2881 11.4413L19.3539 10.1605C19.8754 6.12902 22.8825 3.42564 27.0692 3.41721C31.2542 3.40877 34.3372 6.15096 34.7912 10.228L35.0072 11.9526L38.3805 11.7113L38.1696 9.96471L38.1712 9.96808Z"
                                    fill="#414242"
                                />
                                <path
                                    fill-rule="evenodd"
                                    clip-rule="evenodd"
                                    d="M6.75834 9.44501C6.00403 9.45345 5.39822 10.066 5.39991 10.8186L5.43872 30.8155L5.44547 34.3913V35.3464L5.47078 47.7006C5.47078 48.4583 6.08841 49.0709 6.84609 49.0692L19.1986 49.0456L21.3552 49.0422L35.0459 49.0169C42.5975 49.0017 48.7619 42.8119 48.7467 35.2638V34.3086L48.7028 11.8615C48.6995 10.4862 47.5874 9.37076 46.2121 9.3657C43.696 9.35726 41.1226 9.3522 38.6251 9.49732L35.5117 9.77239C32.7323 10.1166 29.926 10.7427 27.6833 11.8767C27.2851 12.0775 26.8177 12.0792 26.4228 11.8733C24.0721 10.6499 21.5155 10.0188 18.6012 9.69645L15.4878 9.46695C12.5667 9.33532 9.58153 9.41632 6.75666 9.44501H6.75834Z"
                                    fill="#60BB55"
                                />
                                <path
                                    style="mix-blend-mode: multiply"
                                    fill-rule="evenodd"
                                    clip-rule="evenodd"
                                    d="M8.13708 9.42804C6.61833 9.44829 5.39995 10.6869 5.40333 12.204L5.43876 30.8154L5.44551 34.3912V35.3463L5.47083 47.6786C5.47083 48.4481 6.09689 49.0708 6.86808 49.0708L19.1986 49.0472L21.3553 49.0438L35.0459 49.0185C42.5975 49.0033 48.7619 42.8135 48.7468 35.2653V34.3102L48.7029 11.885C48.6995 10.4979 47.5773 9.37235 46.1902 9.36729C43.6809 9.35885 41.1142 9.35379 38.6251 9.49891L35.5117 9.77397C32.7374 10.1165 29.9345 10.7426 27.6935 11.8732C27.2902 12.0774 26.8143 12.0791 26.4127 11.8698C24.0637 10.6498 21.5105 10.0187 18.6013 9.69804L15.4878 9.46854C13.0376 9.35885 10.5435 9.39766 8.13539 9.42972L8.13708 9.42804Z"
                                    fill="url(#paint0_linear_2002_124)"
                                />
                                <path
                                    fill-rule="evenodd"
                                    clip-rule="evenodd"
                                    d="M9.35547 49.0658L19.1987 49.0472L21.3553 49.0438L35.046 49.0185C38.3906 49.0118 41.4618 47.7934 43.8446 45.7836C41.045 39.3103 34.5937 34.7878 27.0962 34.803C18.4072 34.8199 11.1527 40.9202 9.35547 49.0675"
                                    fill="#84C468"
                                />
                                <path
                                    style="mix-blend-mode: multiply"
                                    fill-rule="evenodd"
                                    clip-rule="evenodd"
                                    d="M9.35547 49.0658L19.1987 49.0472L21.3553 49.0438L35.046 49.0185C38.3906 49.0118 41.4618 47.7934 43.8446 45.7836C41.045 39.3103 34.5937 34.7878 27.0962 34.803C18.4072 34.8199 11.1527 40.9202 9.35547 49.0675"
                                    fill="url(#paint1_linear_2002_124)"
                                />
                                <path
                                    fill-rule="evenodd"
                                    clip-rule="evenodd"
                                    d="M27.1251 49.032L35.2065 48.897C38.5073 48.8902 41.5093 47.7208 43.8465 45.7835C46.8553 43.2877 48.7571 39.5128 48.7487 35.2636V34.3085L48.7014 10.4962C48.7014 9.8752 48.1986 9.37233 47.5776 9.37064C44.6346 9.36389 41.5768 9.32508 38.6271 9.4972L35.5136 9.77226C32.4677 10.1486 29.3863 10.8658 27.0542 12.2175L27.1251 49.0303V49.032Z"
                                    fill="#4F9D4D"
                                />
                                <path
                                    style="mix-blend-mode: multiply"
                                    fill-rule="evenodd"
                                    clip-rule="evenodd"
                                    d="M27.1251 49.032L35.2065 48.897C38.5073 48.8902 41.5093 47.7208 43.8465 45.7835C46.8553 43.2877 48.7571 39.5128 48.7487 35.2636V34.3085L48.7014 10.4962C48.7014 9.8752 48.1986 9.37233 47.5776 9.37064C44.6346 9.36389 41.5768 9.32508 38.6271 9.4972L35.5136 9.77226C32.4677 10.1486 29.3863 10.8658 27.0542 12.2175L27.1251 49.0303V49.032Z"
                                    fill="url(#paint2_linear_2002_124)"
                                />
                                <path
                                    style="mix-blend-mode: multiply"
                                    opacity="0.7"
                                    fill-rule="evenodd"
                                    clip-rule="evenodd"
                                    d="M36.8977 15.9705C42.3432 15.9604 46.7679 20.3681 46.7797 25.8137C46.7898 31.2592 42.382 35.6839 36.9365 35.694C31.4892 35.7041 27.0663 31.2964 27.0562 25.8508C27.046 20.4069 31.4504 15.9806 36.8994 15.9705"
                                    fill="url(#paint3_linear_2002_124)"
                                />
                                <path
                                    fill-rule="evenodd"
                                    clip-rule="evenodd"
                                    d="M36.8987 17.2647C41.6288 17.2563 45.4729 21.0852 45.4813 25.8136C45.4898 30.5437 41.6608 34.3878 36.9308 34.3962C32.199 34.4047 28.3583 30.5757 28.3482 25.8457C28.3397 21.1156 32.1653 17.2732 36.897 17.2631"
                                    fill="white"
                                />
                                <path
                                    fill-rule="evenodd"
                                    clip-rule="evenodd"
                                    d="M45.1897 23.4798C44.1604 27.0742 40.8495 29.7101 36.9227 29.7168C32.9959 29.7236 29.6782 27.1046 28.632 23.517C28.4143 24.2763 28.2962 25.0779 28.2979 25.9065C28.3063 30.6652 32.1724 34.5178 36.9311 34.5076C41.6899 34.4992 45.5424 30.6315 45.5323 25.8727C45.5323 25.0408 45.4091 24.2392 45.1881 23.4781L45.1897 23.4798Z"
                                    fill="url(#paint4_linear_2002_124)"
                                />
                                <path
                                    fill-rule="evenodd"
                                    clip-rule="evenodd"
                                    d="M35.9336 20.2821C39.0488 19.9648 41.8331 22.2328 42.1504 25.3446C42.4676 28.4614 40.1979 31.2441 37.0828 31.5613C33.966 31.8786 31.1833 29.6122 30.8661 26.4937C30.7598 25.4559 30.9437 24.4536 31.3487 23.5676C31.8533 24.5227 32.8995 25.1218 34.0403 25.0054C35.5404 24.8518 36.6339 23.5153 36.4804 22.0134C36.4112 21.3384 36.1024 20.7461 35.6484 20.3141C35.7413 20.2989 35.8374 20.2888 35.9319 20.2787"
                                    fill="#303030"
                                />
                                <path
                                    fill-rule="evenodd"
                                    clip-rule="evenodd"
                                    d="M27.1249 49.032L35.0984 49.0168C38.443 49.0101 41.4653 47.7917 43.848 45.7836C41.0789 39.3829 34.4909 34.8907 27.0996 34.8047L27.1266 49.032H27.1249Z"
                                    fill="#60BB55"
                                />
                                <path
                                    style="mix-blend-mode: multiply"
                                    fill-rule="evenodd"
                                    clip-rule="evenodd"
                                    d="M27.1249 49.032L35.0984 49.0168C38.443 49.0101 41.4653 47.7917 43.848 45.7836C41.0789 39.3829 34.4909 34.8907 27.0996 34.8047L27.1266 49.032H27.1249Z"
                                    fill="url(#paint5_linear_2002_124)"
                                />
                                <path
                                    style="mix-blend-mode: multiply"
                                    opacity="0.5"
                                    d="M32.3057 34.3338C31.3978 30.9571 28.0566 30.6534 27.1504 30.6011C27.1065 30.5994 27.0762 30.591 26.9428 30.6045C26.0704 30.6905 22.7106 31.0381 21.8938 34.4823C21.8736 34.5937 21.8871 34.9126 21.8888 35.0308L21.8938 35.0426C21.8938 35.0426 22.1807 35.2333 22.6212 35.5117C23.2017 37.1199 25.9877 40.1574 27.1234 40.1591C27.1622 40.1591 27.1858 40.1557 27.228 40.1557C28.1697 40.1557 30.711 37.4135 31.4552 35.6332C31.9092 35.3413 32.2298 35.1202 32.2922 35.0595C32.3175 34.8451 32.3462 34.5245 32.3057 34.3338Z"
                                    fill="url(#paint6_linear_2002_124)"
                                />
                                <path
                                    style="mix-blend-mode: multiply"
                                    opacity="0.7"
                                    fill-rule="evenodd"
                                    clip-rule="evenodd"
                                    d="M17.1721 15.9705C22.6176 15.9604 27.0423 20.3681 27.0541 25.8137C27.0642 31.2592 22.6565 35.6839 17.2109 35.694C11.7636 35.7041 7.34071 31.2964 7.33058 25.8508C7.32046 20.4069 11.7248 15.9806 17.1738 15.9705"
                                    fill="url(#paint7_linear_2002_124)"
                                />
                                <path
                                    fill-rule="evenodd"
                                    clip-rule="evenodd"
                                    d="M17.1751 17.2647C21.9052 17.2563 25.7493 21.0852 25.7577 25.8136C25.7662 30.5437 21.9372 34.3878 17.2071 34.3962C12.4754 34.4047 8.63465 30.5757 8.62453 25.8457C8.61609 21.1156 12.4416 17.2732 17.1734 17.2631"
                                    fill="white"
                                />
                                <path
                                    fill-rule="evenodd"
                                    clip-rule="evenodd"
                                    d="M25.4646 23.4798C24.4353 27.0742 21.1244 29.7101 17.1976 29.7168C13.2708 29.7236 9.95315 27.1046 8.9069 23.517C8.68921 24.2763 8.57108 25.0779 8.57277 25.9065C8.58121 30.6652 12.4473 34.5178 17.206 34.5076C21.9648 34.4992 25.8173 30.6315 25.8072 25.8727C25.8072 25.0408 25.684 24.2392 25.463 23.4781L25.4646 23.4798Z"
                                    fill="url(#paint8_linear_2002_124)"
                                />
                                <path
                                    fill-rule="evenodd"
                                    clip-rule="evenodd"
                                    d="M18.1086 20.2534C21.2406 20.2466 23.7854 22.7813 23.7904 25.9082C23.7972 29.0419 21.2609 31.585 18.1306 31.59C14.9969 31.5968 12.4555 29.0621 12.4487 25.9301C12.4471 24.8873 12.7289 23.9085 13.2199 23.0665C13.6266 24.0671 14.6071 24.7675 15.7562 24.7658C17.2632 24.7624 18.4849 23.5406 18.4832 22.032C18.4832 21.3536 18.2335 20.7343 17.8251 20.2585C17.9196 20.2517 18.0158 20.2517 18.1103 20.2517"
                                    fill="#303030"
                                />
                                <path
                                    fill-rule="evenodd"
                                    clip-rule="evenodd"
                                    d="M27.2261 39.3761C28.3669 39.3761 31.8532 35.5253 31.6558 34.1263C30.8525 31.0973 27.9365 30.7176 27.1367 30.6703C27.0979 30.6686 27.0709 30.6619 26.9544 30.6737C26.1849 30.7496 23.2402 31.2407 22.5231 34.3271C22.2868 35.4915 25.8086 39.3778 27.1232 39.3795C27.162 39.3795 27.1856 39.3761 27.2278 39.3761H27.2261Z"
                                    fill="url(#paint9_linear_2002_124)"
                                />
                                <path
                                    style="mix-blend-mode: multiply"
                                    d="M30.9437 35.9657C31.4179 35.24 31.7183 34.5617 31.6559 34.1246C31.3335 32.9062 30.6687 32.1182 29.938 31.6068C28.8124 30.9977 27.6362 30.8694 27.1502 30.8424C27.1064 30.8407 27.076 30.8323 26.9427 30.8458C26.4752 30.8897 25.299 31.0618 24.1836 31.7199C23.4614 32.2633 22.8117 33.0851 22.5231 34.3254C22.4556 34.6562 22.6935 35.208 23.0969 35.829C24.4064 36.6069 26.406 37.7223 27.1013 37.7223C27.7965 37.7223 29.6562 36.7318 30.9437 35.9673V35.9657Z"
                                    fill="url(#paint10_linear_2002_124)"
                                />
                                <path
                                    style="mix-blend-mode: multiply"
                                    opacity="0.5"
                                    d="M30.9437 35.9657C31.4179 35.24 31.7183 34.5617 31.6559 34.1246C31.3335 32.9062 30.6687 32.1182 29.938 31.6068C28.8124 30.9977 27.6362 30.8694 27.1502 30.8424C27.1064 30.8407 27.076 30.8323 26.9427 30.8458C26.4752 30.8897 25.299 31.0618 24.1836 31.7199C23.4614 32.2633 22.8117 33.0851 22.5231 34.3254C22.4556 34.6562 22.6935 35.208 23.0969 35.829C24.4064 36.6069 26.406 37.7223 27.1013 37.7223C27.7965 37.7223 29.6562 36.7318 30.9437 35.9673V35.9657Z"
                                    fill="url(#paint11_linear_2002_124)"
                                />
                                <path
                                    opacity="0.8"
                                    fill-rule="evenodd"
                                    clip-rule="evenodd"
                                    d="M26.1293 12.6867C23.777 11.3333 21.2136 10.6634 18.2538 10.3377L15.353 10.1234C12.6327 10.0019 9.85339 10.0762 7.22089 10.1032C6.51551 10.1099 5.94851 10.6837 5.9502 11.389C15.0711 9.77072 26.1293 12.6867 26.1293 12.6867Z"
                                    fill="url(#paint12_linear_2002_124)"
                                />
                                <path
                                    opacity="0.8"
                                    fill-rule="evenodd"
                                    clip-rule="evenodd"
                                    d="M27.7998 12.6867C30.1522 11.3333 32.7155 10.6634 35.6754 10.3377L38.5762 10.1234C41.2964 10.0019 44.0757 10.0762 46.7082 10.1032C47.4136 10.1099 47.9806 10.6837 47.9789 11.389C38.858 9.77072 27.7998 12.6867 27.7998 12.6867Z"
                                    fill="url(#paint13_linear_2002_124)"
                                />
                                <path
                                    d="M32.2733 33.9138C31.3654 30.6823 28.0562 30.2806 27.15 30.2317C27.1062 30.23 27.0758 30.2216 26.9425 30.2351C26.07 30.3178 22.7288 30.8459 21.912 34.1416C21.8918 34.2479 21.8867 34.3576 21.8867 34.4707L21.8918 34.4825C21.8918 34.4825 26.0346 37.1116 27.1011 37.1116C28.1676 37.1116 32.0505 34.7137 32.2902 34.4994C32.3155 34.2952 32.3121 34.0978 32.2716 33.9155L32.2733 33.9138Z"
                                    fill="url(#paint14_linear_2002_124)"
                                />
                                <path
                                    style="mix-blend-mode: multiply"
                                    opacity="0.9"
                                    fill-rule="evenodd"
                                    clip-rule="evenodd"
                                    d="M21.912 34.1416C21.8918 34.2479 21.8867 34.3576 21.8867 34.4706L21.8918 34.4824C21.8918 34.4824 25.9182 37.0373 27.0522 37.1082C27.3643 30.7598 26.9408 30.2367 26.9408 30.2367C26.0683 30.3194 22.7271 30.8476 21.9103 34.1433L21.912 34.1416Z"
                                    fill="url(#paint15_linear_2002_124)"
                                />
                                <path
                                    fill-rule="evenodd"
                                    clip-rule="evenodd"
                                    d="M28.1866 30.3701C27.7427 30.2789 27.3732 30.2452 27.1504 30.2317C27.1066 30.23 27.0762 30.2216 26.9429 30.2351C26.9429 30.2351 27.3664 30.7582 27.0542 37.1066C27.5875 35.6789 27.9992 32.201 28.1866 30.3684V30.3701Z"
                                    fill="url(#paint16_linear_2002_124)"
                                />
                                <path
                                    fill-rule="evenodd"
                                    clip-rule="evenodd"
                                    d="M26.8127 30.2484C26.8127 30.2484 26.7975 30.2501 26.7891 30.2518C26.7975 30.2518 26.8059 30.2501 26.8127 30.2484Z"
                                    fill="white"
                                />
                                <defs>
                                    <linearGradient
                                        id="paint0_linear_2002_124"
                                        x1="31.2069"
                                        y1="17.5247"
                                        x2="8.89476"
                                        y2="58.5714"
                                        gradientUnits="userSpaceOnUse"
                                    >
                                        <stop
                                            stop-color="#519B4C"
                                            stop-opacity="0"
                                        />
                                        <stop offset="1" stop-color="#519B4C" />
                                    </linearGradient>
                                    <linearGradient
                                        id="paint1_linear_2002_124"
                                        x1="26.5595"
                                        y1="42.3883"
                                        x2="26.654"
                                        y2="53.973"
                                        gradientUnits="userSpaceOnUse"
                                    >
                                        <stop
                                            stop-color="#519B4C"
                                            stop-opacity="0"
                                        />
                                        <stop offset="1" stop-color="#519B4C" />
                                    </linearGradient>
                                    <linearGradient
                                        id="paint2_linear_2002_124"
                                        x1="37.4931"
                                        y1="26.3266"
                                        x2="42.2974"
                                        y2="65.3163"
                                        gradientUnits="userSpaceOnUse"
                                    >
                                        <stop
                                            stop-color="#519B4C"
                                            stop-opacity="0"
                                        />
                                        <stop offset="1" stop-color="#519B4C" />
                                    </linearGradient>
                                    <linearGradient
                                        id="paint3_linear_2002_124"
                                        x1="48.0942"
                                        y1="16.1409"
                                        x2="22.7834"
                                        y2="38.0818"
                                        gradientUnits="userSpaceOnUse"
                                    >
                                        <stop stop-color="#3F843F" />
                                        <stop offset="1" stop-color="#519B4C" />
                                    </linearGradient>
                                    <linearGradient
                                        id="paint4_linear_2002_124"
                                        x1="36.9159"
                                        y1="34.3845"
                                        x2="36.9159"
                                        y2="24.0316"
                                        gradientUnits="userSpaceOnUse"
                                    >
                                        <stop stop-color="#E5E3E3" />
                                        <stop
                                            offset="1"
                                            stop-color="#E5E3E3"
                                            stop-opacity="0"
                                        />
                                    </linearGradient>
                                    <linearGradient
                                        id="paint5_linear_2002_124"
                                        x1="35.3042"
                                        y1="43.3029"
                                        x2="34.7389"
                                        y2="53.4752"
                                        gradientUnits="userSpaceOnUse"
                                    >
                                        <stop
                                            stop-color="#519B4C"
                                            stop-opacity="0"
                                        />
                                        <stop offset="1" stop-color="#519B4C" />
                                    </linearGradient>
                                    <linearGradient
                                        id="paint6_linear_2002_124"
                                        x1="27.1605"
                                        y1="31.8414"
                                        x2="26.9226"
                                        y2="43.5172"
                                        gradientUnits="userSpaceOnUse"
                                    >
                                        <stop stop-color="#3F843F" />
                                        <stop offset="1" stop-color="#519B4C" />
                                    </linearGradient>
                                    <linearGradient
                                        id="paint7_linear_2002_124"
                                        x1="7.3289"
                                        y1="25.8322"
                                        x2="27.0541"
                                        y2="25.8322"
                                        gradientUnits="userSpaceOnUse"
                                    >
                                        <stop stop-color="#3F843F" />
                                        <stop offset="1" stop-color="#519B4C" />
                                    </linearGradient>
                                    <linearGradient
                                        id="paint8_linear_2002_124"
                                        x1="17.1925"
                                        y1="34.3845"
                                        x2="17.1925"
                                        y2="24.0316"
                                        gradientUnits="userSpaceOnUse"
                                    >
                                        <stop stop-color="#E5E3E3" />
                                        <stop
                                            offset="1"
                                            stop-color="#E5E3E3"
                                            stop-opacity="0"
                                        />
                                    </linearGradient>
                                    <linearGradient
                                        id="paint9_linear_2002_124"
                                        x1="27.156"
                                        y1="31.7919"
                                        x2="27.1468"
                                        y2="39.325"
                                        gradientUnits="userSpaceOnUse"
                                    >
                                        <stop stop-color="#F9EC31" />
                                        <stop
                                            offset="0.21"
                                            stop-color="#F8DE2E"
                                        />
                                        <stop
                                            offset="0.61"
                                            stop-color="#F7BB26"
                                        />
                                        <stop offset="1" stop-color="#F6921E" />
                                    </linearGradient>
                                    <linearGradient
                                        id="paint10_linear_2002_124"
                                        x1="32.557"
                                        y1="38.5863"
                                        x2="26.6119"
                                        y2="33.7871"
                                        gradientUnits="userSpaceOnUse"
                                    >
                                        <stop stop-color="#F9EC31" />
                                        <stop
                                            offset="0.21"
                                            stop-color="#F8DE2E"
                                        />
                                        <stop
                                            offset="0.61"
                                            stop-color="#F7BB26"
                                        />
                                        <stop offset="1" stop-color="#F6921E" />
                                    </linearGradient>
                                    <linearGradient
                                        id="paint11_linear_2002_124"
                                        x1="32.557"
                                        y1="38.5863"
                                        x2="26.6119"
                                        y2="33.7871"
                                        gradientUnits="userSpaceOnUse"
                                    >
                                        <stop stop-color="#F9EC31" />
                                        <stop
                                            offset="0.21"
                                            stop-color="#F8DE2E"
                                        />
                                        <stop
                                            offset="0.61"
                                            stop-color="#F7BB26"
                                        />
                                        <stop offset="1" stop-color="#F6921E" />
                                    </linearGradient>
                                    <linearGradient
                                        id="paint12_linear_2002_124"
                                        x1="16.0398"
                                        y1="13.7617"
                                        x2="16.0398"
                                        y2="6.50541"
                                        gradientUnits="userSpaceOnUse"
                                    >
                                        <stop
                                            offset="0.2"
                                            stop-color="white"
                                            stop-opacity="0"
                                        />
                                        <stop
                                            offset="0.97"
                                            stop-color="white"
                                        />
                                    </linearGradient>
                                    <linearGradient
                                        id="paint13_linear_2002_124"
                                        x1="37.8894"
                                        y1="13.949"
                                        x2="37.8894"
                                        y2="6.69272"
                                        gradientUnits="userSpaceOnUse"
                                    >
                                        <stop
                                            offset="0.2"
                                            stop-color="white"
                                            stop-opacity="0"
                                        />
                                        <stop
                                            offset="0.97"
                                            stop-color="white"
                                        />
                                    </linearGradient>
                                    <linearGradient
                                        id="paint14_linear_2002_124"
                                        x1="27.1635"
                                        y1="31.1244"
                                        x2="26.9914"
                                        y2="39.5298"
                                        gradientUnits="userSpaceOnUse"
                                    >
                                        <stop stop-color="#F9EC31" />
                                        <stop
                                            offset="0.21"
                                            stop-color="#F8DE2E"
                                        />
                                        <stop
                                            offset="0.61"
                                            stop-color="#F7BB26"
                                        />
                                        <stop offset="1" stop-color="#F6921E" />
                                    </linearGradient>
                                    <linearGradient
                                        id="paint15_linear_2002_124"
                                        x1="31.2743"
                                        y1="32.0778"
                                        x2="23.9235"
                                        y2="34.636"
                                        gradientUnits="userSpaceOnUse"
                                    >
                                        <stop
                                            stop-color="#F9EC31"
                                            stop-opacity="0"
                                        />
                                        <stop
                                            offset="0.09"
                                            stop-color="#F8E72F"
                                            stop-opacity="0.06"
                                        />
                                        <stop
                                            offset="0.27"
                                            stop-color="#F8D92D"
                                            stop-opacity="0.2"
                                        />
                                        <stop
                                            offset="0.51"
                                            stop-color="#F7C428"
                                            stop-opacity="0.44"
                                        />
                                        <stop
                                            offset="0.8"
                                            stop-color="#F6A722"
                                            stop-opacity="0.76"
                                        />
                                        <stop offset="1" stop-color="#F6921E" />
                                    </linearGradient>
                                    <linearGradient
                                        id="paint16_linear_2002_124"
                                        x1="28.2709"
                                        y1="38.4869"
                                        x2="26.8534"
                                        y2="28.1459"
                                        gradientUnits="userSpaceOnUse"
                                    >
                                        <stop
                                            offset="0.2"
                                            stop-color="white"
                                            stop-opacity="0"
                                        />
                                        <stop
                                            offset="0.97"
                                            stop-color="white"
                                        />
                                    </linearGradient>
                                </defs>
                            </svg>