    <svg
                            width="54"
                            height="54"
                            viewBox="0 0 54 54"
                            fill="none"
                            xmlns="http://www.w3.org/2000/svg"
                        >
                            <path
                                opacity="0.2"
                                d="M45.5625 15.1875V37.125H8.4375V15.1875C8.4375 14.2924 8.79308 13.4339 9.42601 12.801C10.0589 12.1681 10.9174 11.8125 11.8125 11.8125H42.1875C43.0826 11.8125 43.941 12.1681 44.574 12.801C45.2069 13.4339 45.5625 14.2924 45.5625 15.1875Z"
                                fill="#2E4E99"
                            />
                            <path
                                d="M48.9375 35.4375H47.25V15.1875C47.25 13.8448 46.7166 12.5572 45.7672 11.6078C44.8178 10.6584 43.5302 10.125 42.1875 10.125H11.8125C10.4698 10.125 9.18218 10.6584 8.23277 11.6078C7.28337 12.5572 6.75 13.8448 6.75 15.1875V35.4375H5.0625C4.61495 35.4375 4.18572 35.6153 3.86926 35.9318C3.55279 36.2482 3.375 36.6774 3.375 37.125V40.5C3.375 41.8427 3.90837 43.1303 4.85777 44.0797C5.80717 45.0291 7.09484 45.5625 8.4375 45.5625H45.5625C46.9052 45.5625 48.1928 45.0291 49.1422 44.0797C50.0916 43.1303 50.625 41.8427 50.625 40.5V37.125C50.625 36.6774 50.4472 36.2482 50.1307 35.9318C49.8143 35.6153 49.3851 35.4375 48.9375 35.4375ZM10.125 15.1875C10.125 14.7399 10.3028 14.3107 10.6193 13.9943C10.9357 13.6778 11.3649 13.5 11.8125 13.5H42.1875C42.6351 13.5 43.0643 13.6778 43.3807 13.9943C43.6972 14.3107 43.875 14.7399 43.875 15.1875V35.4375H10.125V15.1875ZM47.25 40.5C47.25 40.9476 47.0722 41.3768 46.7557 41.6932C46.4393 42.0097 46.0101 42.1875 45.5625 42.1875H8.4375C7.98995 42.1875 7.56073 42.0097 7.24426 41.6932C6.92779 41.3768 6.75 40.9476 6.75 40.5V38.8125H47.25V40.5ZM32.0625 18.5625C32.0625 19.0101 31.8847 19.4393 31.5682 19.7557C31.2518 20.0722 30.8226 20.25 30.375 20.25H23.625C23.1774 20.25 22.7482 20.0722 22.4318 19.7557C22.1153 19.4393 21.9375 19.0101 21.9375 18.5625C21.9375 18.1149 22.1153 17.6857 22.4318 17.3693C22.7482 17.0528 23.1774 16.875 23.625 16.875H30.375C30.8226 16.875 31.2518 17.0528 31.5682 17.3693C31.8847 17.6857 32.0625 18.1149 32.0625 18.5625Z"
                                fill="#2E4E99"
                            />
                        </svg>